<svg xmlns="http://www.w3.org/2000/svg" xmlns:xlink="http://www.w3.org/1999/xlink" width="214.308" height="150.016" viewBox="0 0 214.308 150.016">
  <defs>
    <linearGradient id="linear-gradient" x1="0.5" x2="0.5" y2="1" gradientUnits="objectBoundingBox">
      <stop offset="0" stop-color="#f3f6fa"/>
      <stop offset="1" stop-color="#fff"/>
    </linearGradient>
  </defs>
  <g id="Group_13671" data-name="Group 13671" transform="translate(-87.846 -139.984)">
    <g id="Group_13670" data-name="Group 13670" transform="translate(-0.154 -62.163)">
      <path id="Icon_awesome-cloud" data-name="Icon awesome-cloud" d="M180.019,67.413a32.184,32.184,0,0,0-30-43.732,31.982,31.982,0,0,0-17.848,5.425A53.581,53.581,0,0,0,32.146,55.827c0,.9.033,1.808.067,2.712a48.232,48.232,0,0,0,16.006,93.726H171.446a42.859,42.859,0,0,0,8.572-84.853Z" transform="translate(88 199.897)" fill="url(#linear-gradient)"/>
    </g>
    <path id="Path_28570" data-name="Path 28570" d="M184.86,49.245H148.223v-9.39a5.943,5.943,0,0,0-5.948-5.948H109.86a5.942,5.942,0,0,0-5.947,5.948v73.319a5.953,5.953,0,0,0,5.947,5.948h32.416a5.954,5.954,0,0,0,5.948-5.948V83.331h36.639a4.265,4.265,0,0,0,4.265-4.265V53.51a4.265,4.265,0,0,0-4.265-4.265ZM121.807,37.519h8.521a2.13,2.13,0,0,1,0,4.261h-8.521a2.13,2.13,0,0,1,0-4.261Zm8.521,77.974h-8.521a2.13,2.13,0,0,1,0-4.261h8.521a2.13,2.13,0,0,1,0,4.261Zm14.146-7.876H107.661V45.41h36.812v3.835h-22.7a4.226,4.226,0,0,0-4.226,4.226V79.1a4.23,4.23,0,0,0,4.23,4.23h7.7v6.846a2.106,2.106,0,0,0,3.6,1.489l8.335-8.335h3.067Zm-4.619-39.777a2.141,2.141,0,0,1,.784,2.914,2.12,2.12,0,0,1-2.914.785l-2.709-1.568v3.136a2.13,2.13,0,1,1-4.261,0V69.97l-2.711,1.568a2.134,2.134,0,0,1-2.13-3.7l2.711-1.551-2.711-1.568a2.134,2.134,0,0,1,2.13-3.7l2.711,1.568V59.471a2.13,2.13,0,1,1,4.261,0v3.119l2.709-1.568h0a2.134,2.134,0,1,1,2.13,3.7l-2.709,1.568Zm20.451,0a2.141,2.141,0,0,1,.784,2.914,2.12,2.12,0,0,1-2.914.785l-2.709-1.568v3.136a2.13,2.13,0,1,1-4.261,0V69.97l-2.711,1.568a2.134,2.134,0,0,1-2.13-3.7l2.711-1.551-2.711-1.568a2.134,2.134,0,0,1,2.13-3.7l2.711,1.568V59.471a2.13,2.13,0,0,1,4.261,0v3.119l2.709-1.568h0a2.134,2.134,0,1,1,2.13,3.7L157.6,66.289Zm20.451,0a2.141,2.141,0,0,1,.784,2.914,2.12,2.12,0,0,1-2.914.785l-2.709-1.568v3.136a2.13,2.13,0,1,1-4.261,0V69.97l-2.711,1.568a2.134,2.134,0,0,1-2.13-3.7l2.711-1.551-2.711-1.568a2.134,2.134,0,0,1,2.13-3.7l2.711,1.568V59.471a2.13,2.13,0,0,1,4.261,0v3.119l2.709-1.568h0a2.134,2.134,0,1,1,2.13,3.7l-2.709,1.568Z" transform="translate(61.588 163.127)" fill="#717c90"/>
  </g>
</svg>
