<svg width="20" height="20" viewBox="0 0 20 20" fill="none" xmlns="http://www.w3.org/2000/svg">
<g id="zoom/search" clip-path="url(#clip0_23620_411)">
<path id="Icon" d="M18.8131 19.5201C19.0084 19.7154 19.325 19.7154 19.5202 19.5201C19.7155 19.3249 19.7155 19.0083 19.5202 18.813L18.8131 19.5201ZM15.4314 8.38227C15.4314 12.2753 12.2754 15.4313 8.38236 15.4313V16.4313C12.8277 16.4313 16.4314 12.8276 16.4314 8.38227H15.4314ZM8.38236 15.4313C4.4893 15.4313 1.33334 12.2753 1.33334 8.38227H0.333344C0.333344 12.8276 3.93701 16.4313 8.38236 16.4313V15.4313ZM1.33334 8.38227C1.33334 4.48921 4.4893 1.33325 8.38236 1.33325V0.333252C3.93701 0.333252 0.333344 3.93692 0.333344 8.38227H1.33334ZM8.38236 1.33325C12.2754 1.33325 15.4314 4.48921 15.4314 8.38227H16.4314C16.4314 3.93692 12.8277 0.333252 8.38236 0.333252V1.33325ZM13.421 14.128L18.8131 19.5201L19.5202 18.813L14.1281 13.4209L13.421 14.128Z" fill="#777777"/>
</g>
<defs>
<clipPath id="clip0_23620_411">
<rect width="20" height="20" fill="white"/>
</clipPath>
</defs>
</svg>
