<svg width="16" height="16" viewBox="0 0 16 16" fill="none" xmlns="http://www.w3.org/2000/svg">
<path d="M14.9469 13.2762L11.4469 6.27625C11.4053 6.19321 11.3415 6.12338 11.2625 6.07457C11.1835 6.02576 11.0925 5.99991 10.9997 5.99991C10.9068 5.99991 10.8158 6.02576 10.7368 6.07457C10.6579 6.12338 10.594 6.19321 10.5525 6.27625L9.19563 8.99063C8.13206 8.93082 7.10875 8.56344 6.25 7.93313C7.25755 6.85716 7.86803 5.46976 7.98063 4H9.5C9.63261 4 9.75979 3.94732 9.85355 3.85355C9.94732 3.75979 10 3.63261 10 3.5C10 3.36739 9.94732 3.24021 9.85355 3.14645C9.75979 3.05268 9.63261 3 9.5 3H6V2C6 1.86739 5.94732 1.74021 5.85355 1.64645C5.75979 1.55268 5.63261 1.5 5.5 1.5C5.36739 1.5 5.24021 1.55268 5.14645 1.64645C5.05268 1.74021 5 1.86739 5 2V3H1.5C1.36739 3 1.24021 3.05268 1.14645 3.14645C1.05268 3.24021 1 3.36739 1 3.5C1 3.63261 1.05268 3.75979 1.14645 3.85355C1.24021 3.94732 1.36739 4 1.5 4H6.97687C6.86551 5.22541 6.34535 6.37778 5.5 7.27187C4.97322 6.71604 4.56871 6.05604 4.3125 5.33437C4.29143 5.27141 4.25804 5.21327 4.21426 5.16335C4.17048 5.11343 4.1172 5.07273 4.05753 5.04363C3.99785 5.01452 3.93298 4.99759 3.86669 4.99383C3.8004 4.99006 3.73402 4.99954 3.67144 5.0217C3.60885 5.04386 3.5513 5.07827 3.50216 5.12291C3.45301 5.16755 3.41324 5.22154 3.38518 5.28171C3.35712 5.34189 3.34133 5.40705 3.33872 5.47339C3.33612 5.53974 3.34675 5.60593 3.37 5.66813C3.66829 6.51179 4.13817 7.28449 4.75 7.9375C3.80798 8.62974 2.66902 9.00209 1.5 9C1.36739 9 1.24021 9.05268 1.14645 9.14645C1.05268 9.24021 1 9.36739 1 9.5C1 9.63261 1.05268 9.75979 1.14645 9.85355C1.24021 9.94732 1.36739 10 1.5 10C2.95037 10.0016 4.35916 9.51558 5.5 8.62C6.43098 9.34742 7.54235 9.80782 8.715 9.95187L7.0525 13.2762C6.99316 13.3949 6.98336 13.5322 7.02526 13.658C7.06717 13.7838 7.15734 13.8878 7.27594 13.9472C7.39454 14.0065 7.53186 14.0163 7.65768 13.9744C7.78351 13.9325 7.88753 13.8424 7.94688 13.7238L8.80875 12H13.1906L14.0525 13.7238C14.0941 13.8068 14.158 13.8767 14.237 13.9255C14.316 13.9743 14.4071 14.0001 14.5 14C14.5852 14 14.669 13.9781 14.7434 13.9366C14.8178 13.8951 14.8804 13.8352 14.9252 13.7627C14.9699 13.6902 14.9954 13.6074 14.9992 13.5223C15.003 13.4372 14.985 13.3525 14.9469 13.2762ZM9.30875 11L11 7.61812L12.6906 11H9.30875Z" fill="white"/>
</svg>
